<?xml version="1.0" standalone="no"?><!DOCTYPE svg PUBLIC "-//W3C//DTD SVG 1.1//EN" "http://www.w3.org/Graphics/SVG/1.1/DTD/svg11.dtd"><svg t="1519405290515" class="icon" style="" viewBox="0 0 1024 1024" version="1.1" xmlns="http://www.w3.org/2000/svg" p-id="1033" xmlns:xlink="http://www.w3.org/1999/xlink" width="200" height="200"><defs><style type="text/css"></style></defs><path d="M921.6 563.2c-9.6-9.6-25.6-9.6-35.2 0L544 896l0-822.4c0-12.8-9.6-22.4-25.6-22.4s-25.6 9.6-25.6 22.4L492.8 896l-342.4-339.2c-9.6-9.6-25.6-9.6-35.2 0-9.6 9.6-9.6 22.4 0 32l384 377.6c6.4 6.4 12.8 6.4 19.2 6.4 0 0 0 0 0 0 3.2 0 3.2 0 6.4 0 0 0 0 0 3.2 0 3.2 0 6.4-3.2 9.6-6.4l380.8-371.2C931.2 588.8 931.2 572.8 921.6 563.2z" p-id="1034"></path></svg>