<?xml version="1.0" standalone="no"?><!DOCTYPE svg PUBLIC "-//W3C//DTD SVG 1.1//EN" "http://www.w3.org/Graphics/SVG/1.1/DTD/svg11.dtd"><svg t="1519405061640" class="icon" style="" viewBox="0 0 1024 1024" version="1.1" xmlns="http://www.w3.org/2000/svg" p-id="1440" xmlns:xlink="http://www.w3.org/1999/xlink" width="200" height="200"><defs><style type="text/css"></style></defs><path d="M236.352009 923.205363l-2.865257 0.76748 463.946564 0c11.307533 0 20.466124 9.15859 20.466124 20.466124 0 11.2973-9.15859 20.466124-20.466124 20.466124L78.220502 964.90509c-0.010233 0-0.010233 0-0.020466 0-0.347924 0-0.685615-0.010233-1.033539-0.030699-0.143263 0-0.276293-0.010233-0.419556-0.030699-0.409322-0.020466-0.828878-0.061398-1.238201-0.122797-0.76748-0.092098-1.524726-0.23536-2.261507-0.429789-0.306992-0.081864-0.624217-0.163729-0.931209-0.255827-0.23536-0.071631-0.480954-0.143263-0.716314-0.225127-0.23536-0.081864-0.470721-0.173962-0.695848-0.255827 0 0 0 0-0.010233 0-0.225127-0.092098-0.460488-0.184195-0.685615-0.286526-0.23536-0.092098-0.460488-0.194428-0.685615-0.306992-0.296759-0.143263-0.593518-0.286526-0.890276-0.450255-0.296759-0.153496-0.593518-0.317225-0.880043-0.491187-0.583285-0.337691-1.146103-0.716314-1.678222-1.115404-0.225127-0.163729-0.440022-0.327458-0.654916-0.50142-1.166569-0.931209-2.230808-1.995447-3.162016-3.162016-0.173962-0.214894-0.337691-0.429789-0.50142-0.654916-0.613984-0.818645-1.156336-1.688455-1.63729-2.609431-0.143263-0.276293-0.286526-0.562818-0.419556-0.839111-0.102331-0.225127-0.204661-0.450255-0.306992-0.685615-0.194428-0.460488-0.36839-0.920976-0.532119-1.391696-0.153496-0.470721-0.296759-0.941442-0.429789-1.412163-0.184195-0.73678-0.337691-1.473561-0.450255-2.220574-0.092098-0.63445-0.153496-1.289366-0.194428-1.934049 0-0.020466-0.010233-0.030699 0-0.051165-0.010233-0.153496-0.010233-0.306992-0.010233-0.460488-0.010233-0.081864-0.010233-0.173962-0.010233-0.26606-0.010233-0.306992 0-0.624217 0.010233-0.941442 0.010233-0.225127 0.020466-0.440022 0.030699-0.665149 0.040932-0.665149 0.122797-1.330298 0.225127-1.995447 0.030699-0.225127 0.071631-0.440022 0.122797-0.654916 0.040932-0.225127 0.092098-0.440022 0.143263-0.665149 0.051165-0.214894 0.102331-0.440022 0.163729-0.654916l0.153496-0.562818c0.010233-0.081864 0.040932-0.153496 0.061398-0.225127l40.768519-152.032602c0.941442-3.50994 2.793626-6.692423 5.372358-9.250688l633.426537-626.928542c8.032954-7.951089 20.998243-7.889691 28.949332 0.143263 7.951089 8.043187 7.879458 20.998243-0.153496 28.949332l-629.486808 623.039979-30.371728 113.208365 113.320928-30.402427 629.568672-623.121843c8.032954-7.951089 20.998243-7.879458 28.949332 0.153496 7.951089 8.032954 7.879458 20.98801-0.153496 28.939099l-633.426537 626.938776C242.911402 920.483368 239.780085 922.284387 236.352009 923.205363z" p-id="1441"></path><path d="M921.621285 247.977791c-0.100284 0.079818 16.818037-16.838503 16.818037-16.838503 38.797631-38.797631 38.797631-101.685937 0.040932-140.453892-38.836517-38.807864-101.706403-38.777165-140.484591 0 0 0-16.935718 16.937764-16.838503 16.838503L921.621285 247.977791z" p-id="1442"></path><path d="M57.774845 943.773817c-0.010233 0.317225-0.020466 0.63445-0.010233 0.941442-0.010233-0.092098-0.010233-0.184195-0.010233-0.276293C57.754379 944.213839 57.754379 943.988712 57.774845 943.773817z" p-id="1443"></path><path d="M58.030671 941.113221c-0.102331 0.665149-0.184195 1.330298-0.225127 1.995447C57.836243 942.433286 57.918108 941.768137 58.030671 941.113221z" p-id="1444"></path><path d="M57.979506 947.42702c-0.102331-0.63445-0.163729-1.279133-0.194428-1.934049C57.82601 946.137655 57.887408 946.792571 57.979506 947.42702z" p-id="1445"></path><path d="M58.613956 938.575422c-0.122797 0.399089-0.23536 0.808412-0.317225 1.217734 0.051165-0.214894 0.102331-0.440022 0.163729-0.654916L58.613956 938.575422z" p-id="1446"></path></svg>