<?xml version="1.0" standalone="no"?><!DOCTYPE svg PUBLIC "-//W3C//DTD SVG 1.1//EN" "http://www.w3.org/Graphics/SVG/1.1/DTD/svg11.dtd"><svg t="1521553495443" class="icon" style="" viewBox="0 0 1024 1024" version="1.1" xmlns="http://www.w3.org/2000/svg" p-id="3488" xmlns:xlink="http://www.w3.org/1999/xlink" width="200" height="200"><defs><style type="text/css"></style></defs><path d="M128 853.333333h768.064L896 170.666667H127.936L128 853.333333zM127.936 128h768.128C919.594667 128 938.666667 146.986667 938.666667 170.666667v682.666666c0 23.573333-19.029333 42.666667-42.602667 42.666667H127.936A42.56 42.56 0 0 1 85.333333 853.333333V170.666667c0-23.573333 19.029333-42.666667 42.602667-42.666667z m200.128 527.082667c22.890667-19.626667 68.48-36.416 98.794667-36.416h20.949333c40.533333 0 95.914667-20.437333 126.549333-46.698667l52.373334-44.885333c22.890667-19.626667 68.48-36.416 98.794666-36.416H810.666667a21.333333 21.333333 0 0 0 0-42.666667h-85.12c-40.533333 0-95.936 20.437333-126.570667 46.698667l-52.373333 44.885333C523.690667 559.210667 478.165333 576 447.786667 576h-20.949334c-40.490667 0-95.914667 20.437333-126.549333 46.698667L199.445333 709.12a21.333333 21.333333 0 1 0 27.776 32.384l100.842667-86.442667z" fill="#3D3D3D" p-id="3489"></path><path d="M352 373.333333m-53.333333 0a53.333333 53.333333 0 1 0 106.666666 0 53.333333 53.333333 0 1 0-106.666666 0Z" fill="#3D3D3D" p-id="3490"></path></svg>