<?xml version="1.0" standalone="no"?><!DOCTYPE svg PUBLIC "-//W3C//DTD SVG 1.1//EN" "http://www.w3.org/Graphics/SVG/1.1/DTD/svg11.dtd"><svg t="1521553642600" class="icon" style="" viewBox="0 0 1024 1024" version="1.1" xmlns="http://www.w3.org/2000/svg" p-id="3488" xmlns:xlink="http://www.w3.org/1999/xlink" width="200" height="200"><defs><style type="text/css"></style></defs><path d="M296.704 552.789333c-1.450667 21.397333-10.154667 73.408-58.581333 110.592C199.466667 693.056 155.690667 690.56 128 684.330667c105.856 40.832 111.829333 128.746667 105.749333 178.218666 39.125333-128.853333 180.138667-100.906667 205.866667-94.656-133.653333-35.989333-142.933333-176.597333-142.912-215.104z m497.450667-310.357333c-16.064 3.84-56.192 3.2-94.293334-24.384C669.482667 196.053333 662.336 150.08 660.736 128c-6.485333 88.277333-70.485333 125.717333-108.181333 132.522667 106.026667-0.426667 114.688 116.949333 115.370666 133.141333-4.16-108.949333 97.813333-142.357333 126.250667-151.232z m88.725333 222.229333c-4.842667 7.594667-18.517333 25.002667-43.861333 28.714667-20.266667 2.965333-35.925333-7.061333-44.864-15.104 30.912 37.034667 15.317333 70.762667 3.093333 87.744 41.429333-40.576 89.173333 2.026667 95.552 8.085333-42.794667-40.981333-17.706667-95.189333-9.92-109.44z m-466.944 89.386667l62.890667-63.488-76.309334-72.149333a22.293333 22.293333 0 0 0-31.552 0.917333l-30.634666 32.490667a22.378667 22.378667 0 0 0 0.896 31.573333l74.709333 70.656z m86.186667-41.429333l-62.869334 63.466666 331.861334 313.813334c8.96 8.469333 23.082667 8.064 31.552-0.896l30.634666-32.490667a22.357333 22.357333 0 0 0-0.917333-31.573333l-330.24-312.32z" fill="#3D3D3D" p-id="3489"></path></svg>