<?xml version="1.0" standalone="no"?><!DOCTYPE svg PUBLIC "-//W3C//DTD SVG 1.1//EN" "http://www.w3.org/Graphics/SVG/1.1/DTD/svg11.dtd"><svg t="1519405015832" class="icon" style="" viewBox="0 0 1024 1024" version="1.1" xmlns="http://www.w3.org/2000/svg" p-id="1323" xmlns:xlink="http://www.w3.org/1999/xlink" width="200" height="200"><defs><style type="text/css"></style></defs><path d="M840.041268 326.208527l-38.23072 5.392824c-11.082406-53.866838-20.333094-80.820724-33.871435-98.779747-18.470677-26.329668-34.516118-34.853809-122.633015-34.853809l-91.596138 0 0 555.051515c0 89.211834 8.994861 99.015108 122.397654 105.001449l0 35.32453-326.270948 0 0-35.32453c109.104907-5.986341 122.070196-14.602579 122.070196-105.001449l0-555.051515-86.039585 0c-88.168062 0-112.215758 8.524141-126.992299 33.656541-12.903891 19.156292-22.185278 50.2955-35.733852 99.977016l-37.565571 0c4.297886-66.453505 11.082406-131.177622 13.538341-194.029088l25.285896 0c17.242709 25.1324 32.019251 19.821441 64.089667 19.821441l457.878358 0c30.821983 0 37.565571 1.115404 54.849212-19.821441l27.117614 0C828.334645 190.855816 833.891198 263.960811 840.041268 326.208527z" p-id="1324"></path></svg>